<?xml version="1.0" encoding="UTF-8"?>
<svg width="752pt" height="752pt" version="1.1" viewBox="0 0 752 752" xmlns="http://www.w3.org/2000/svg">
 <g>
  <path d="m464.8 308.25c0 2.6328-1.7539 5.043-4.8242 7.2344z"/>
  <path d="m459.97 319c-0.87891 0-1.5352-0.4375-2.1914-0.87891-1.0977-1.0977-1.3164-2.8516-0.4375-4.1641l4.8242-7.2344c1.0977-1.5352 3.0703-1.9727 4.6055-0.87891 0.87891 0.65625 1.5352 1.5352 1.5352 2.8516 0 3.5078-2.1914 7.0156-6.1406 9.8672-0.66016 0.21875-1.5352 0.4375-2.1953 0.4375z"/>
  <path d="m424.46 285.23c-26.531-5.2617-62.047-8.1133-99.539-8.1133-37.492 0-72.793 2.8516-99.32 8.1133-28.941 5.6992-43.629 13.594-43.629 23.02 0 0.65625 0.21875 1.3164 0.4375 1.7539l4.8242 7.2344c0.21875 0.21875 0.4375 0.65625 0.65625 0.87891 3.5078 2.4102 7.4531 4.6055 11.621 5.918l0.4375 0.21875 1.9727 0.65625c4.3867 1.5352 8.9883 2.8516 13.594 3.9453l2.4102 0.65625c3.2891 0.65625 6.7969 1.5352 10.523 2.1914l3.5078 0.65625c3.9453 0.65625 8.1133 1.3164 12.496 1.9727l3.5078 0.4375c3.2891 0.4375 6.3594 0.87891 9.8672 1.0977 1.7539 0.21875 3.2891 0.4375 5.043 0.4375 3.5078 0.4375 7.0156 0.65625 10.523 0.87891 3.5078 0.21875 7.2344 0.4375 10.961 0.65625l1.7578 0.011718c3.0703 0.21875 6.1406 0.4375 9.207 0.4375h0.4375l5.4805 0.21875 5.918 0.21875h5.918 4.3867 14.906 4.3867 5.918l5.918-0.21875 5.4805-0.21875h0.4375c3.0703-0.21875 6.1406-0.21875 9.207-0.4375h1.7539c3.7266-0.21875 7.2344-0.4375 10.961-0.65625 3.7266-0.21875 7.0156-0.65625 10.523-0.87891 1.7539-0.21875 3.2891-0.4375 5.043-0.4375 3.2891-0.4375 6.5781-0.65625 9.8672-1.0977l3.7266-0.4375c4.1641-0.65625 8.332-1.3164 12.277-1.9727l3.5078-0.65625c1.7539-0.21875 3.2891-0.65625 4.8242-0.87891l3.5078-0.65625 2.4102-0.4375 2.4102-0.65625c3.5078-0.87891 6.5781-1.7539 9.6484-2.6328l1.5352-0.4375c0.87891-0.21875 1.7539-0.4375 2.4102-0.87891l1.9727-0.65625 0.4375-0.21875c4.1641-1.5352 8.1133-3.5078 11.621-5.918l0.21875-0.21875c0.21875-0.21875 0.4375-0.4375 0.4375-0.65625l4.8242-7.2344c0.4375-0.4375 0.4375-1.0977 0.4375-1.7539 0.019532-9.6562-14.668-17.328-43.609-23.25zm20.609 33.984-1.3164 0.4375c-1.3164 0.4375-2.8516 0.87891-4.3867 1.3164l-1.5352 0.4375-0.65625 0.21875-0.87891 0.21875c-1.0977 0.21875-2.1914 0.65625-3.5078 0.87891l-1.9727 0.66016-1.5352 0.4375-0.65625 0.21875-3.0703 0.65625-1.9727 0.4375c-1.9727 0.4375-3.9453 0.65625-5.918 1.0977-1.9727 0.4375-4.1641 0.65625-6.3594 1.0977h-0.65625c-3.5078 0.4375-7.0156 1.0977-10.523 1.5352-3.0703 0.4375-6.3594 0.65625-9.6484 1.0977-3.2891 0.4375-6.7969 0.65625-10.305 0.87891l-3.5078 0.21875c-7.4531 0.65625-15.129 1.0977-23.02 1.3164-1.0977 0-2.4102 0-3.5078 0.21875-8.1133 0.21875-16.445 0.4375-24.996 0.4375s-16.883-0.21875-24.996-0.4375l-3.5078-0.44141c-7.2344-0.21875-14.25-0.65625-21.047-1.3164l-1.9727-0.21875c-4.6055-0.4375-9.207-0.87891-13.594-1.3164-3.2891-0.4375-6.3594-0.65625-9.6484-1.0977-3.2891-0.4375-6.1406-0.87891-8.9883-1.3164l-2.1914-0.4375c-2.1914-0.4375-4.3867-0.65625-6.3594-1.0977-2.6328-0.4375-5.4805-0.87891-7.8945-1.5352l-3.0703-0.65625-4.3867-0.87891-1.5312-0.43359c-1.0977-0.21875-2.1914-0.65625-3.2891-0.87891l-1.7539-0.4375-2.1953-0.875c-5.6992-1.5352-10.961-3.9453-16.004-7.0156l-3.9453-5.918c2.6328-10.086 54.156-23.68 136.38-23.68s133.74 13.594 136.38 23.898l-3.9453 5.918c-3.9492 3.0664-8.1172 5.0391-12.5 6.3555z"/>
  <path d="m330.4 388.94h-6.5781c0.21875 2.1914 0.21875 4.3867 0 6.5781h6.5781c0.21875-2.1953 0.21875-4.3867 0-6.5781zm131.99-75.422v0c-1.3164-1.3164-3.0703-1.3164-4.3867-0.4375l-0.4375 0.4375c-3.9453 2.4102-8.1133 4.3867-12.277 5.918l-1.3164 0.4375c-1.3164 0.4375-2.8516 0.87891-4.3867 1.3164l-1.5352 0.4375-0.65625 0.21875-0.87891 0.21875c-1.0977 0.21875-2.1914 0.65625-3.5078 0.87891l-2.1914 0.4375-1.5352 0.4375-0.65625 0.21875-3.0703 0.65625-1.9727 0.4375c-1.9727 0.4375-3.9453 0.65625-5.918 1.0977l-6.3594 1.0977h-0.65625c-3.5078 0.4375-7.0156 1.0977-10.523 1.5352-3.0703 0.4375-6.3594 0.65625-9.6484 1.0977-3.2891 0.4375-6.7969 0.65625-10.305 0.87891l-3.5078 0.21875c-7.4531 0.65625-15.129 1.0977-23.02 1.3164-1.0977 0-2.4102 0-3.5078 0.21875-8.1133 0.21875-16.445 0.4375-24.996 0.4375s-16.883-0.21875-24.996-0.4375l-3.5078-0.4375c-7.2344-0.21875-14.25-0.65625-21.047-1.3164l-1.9727-0.21875c-4.6055-0.4375-9.207-0.87891-13.594-1.3164-3.2891-0.4375-6.3594-0.65625-9.6484-1.0977-3.2891-0.4375-6.1406-0.87891-8.9883-1.3164l-2.1914-0.4375-6.3594-1.0977c-2.6328-0.4375-5.4805-0.87891-7.8945-1.5352l-3.0703-0.65625-4.3867-0.87891-1.5312-0.43359c-1.0977-0.21875-2.1914-0.65625-3.2891-0.87891l-1.7539-0.4375-2.1953-0.875c-5.6992-1.5352-10.961-3.9453-16.004-7.0156l-0.4375-0.4375c-1.3164-0.87891-3.0703-0.87891-4.1641 0.21875-1.0977 1.0977-1.3164 2.8516-0.4375 4.1641l45.387 67.969c4.1641 6.3594 11.402 10.086 18.855 10.305h50.426c0.4375-2.4102 1.0977-4.6055 1.7539-6.5781h-52.621c-5.4805 0-10.523-2.6328-13.594-7.2344l-38.152-56.789 0.4375 0.21875 1.9727 0.65625c4.3867 1.5352 8.9883 2.8516 13.594 3.9453l2.4102 0.65625c3.2891 0.65625 6.7969 1.5352 10.523 2.1914l3.5078 0.65625c3.9453 0.65625 8.1133 1.3164 12.496 1.9727l3.5078 0.4375c3.2891 0.4375 6.3594 0.87891 9.8672 1.0977 1.7539 0.21875 3.2891 0.4375 5.043 0.4375 3.5078 0.4375 7.0156 0.65625 10.523 0.87891 3.5078 0.21875 7.2344 0.4375 10.961 0.65625l1.543 0.007812c3.0703 0.21875 6.1406 0.4375 9.207 0.4375h0.4375l5.4805 0.21875 5.918 0.21875h5.918 4.3867 14.906 4.3867 5.918l5.918-0.21875 5.4805-0.21875h0.4375c3.0703-0.21875 6.1406-0.21875 9.207-0.4375h1.7539c3.7266-0.21875 7.2344-0.4375 10.961-0.65625 3.7266-0.21875 7.0156-0.65625 10.523-0.87891 1.7539-0.21875 3.2891-0.4375 5.043-0.4375 3.2891-0.4375 6.5781-0.65625 9.8672-1.0977l3.7266-0.4375c4.1641-0.65625 8.332-1.3164 12.277-1.9727l3.5078-0.65625c1.7539-0.21875 3.2891-0.65625 4.8242-0.87891l3.5078-0.65625 2.4102-0.4375 2.4102-0.65625c3.5078-0.87891 6.5781-1.7539 9.6484-2.6328l1.5352-0.4375c0.87891-0.21875 1.7539-0.4375 2.4102-0.87891l1.9727-0.65625 0.4375-0.21875-19.074 28.723-2.1914 3.2891-2.1914 3.5078c2.6328-0.21875 5.2617-0.21875 8.1133-0.21875l4.3828-6.5781 23.461-35.078 0.21875-0.4375c0.23438-1.3203 0.23438-3.0781-0.85938-4.1719zm-149.97 75.422h-4.8242l3.2891 6.5781h4.8242v-0.21875zm105.02-15.566-3.2891 5.043 8.9883-1.7539 3.5078-5.2617c-3.0703 0.65625-6.1406 1.3125-9.207 1.9727zm-27.188 22.145h8.1133c2.1914 0 4.1641-0.21875 6.1406-0.87891-4.6094 0.21875-9.4297 0.44141-14.254 0.87891zm-10.086-1.0977c-1.7539 0-3.2891 0.4375-4.8242 1.0977h9.6484c-1.5352-0.66016-3.0703-1.0977-4.8242-1.0977z"/>
  <path d="m434.54 416.12c0 1.3164-0.87891 2.1914-2.1914 2.1914h-21.27c-1.3164 0-2.1914-0.87891-2.1914-2.1914 0-1.3164 0.87891-2.1914 2.1914-2.1914h21.266c1.3164 0 2.1953 1.0938 2.1953 2.1914z"/>
  <path d="m485.41 416.78c0.21875 1.0977-0.65625 2.4102-1.7539 2.6328-2.1914 0.4375-4.3867 0.4375-6.5781 0.4375-4.8242-0.21875-9.8672-0.65625-14.691-1.5352-5.2617-0.87891-9.6484-1.5352-12.715-0.87891-1.0977 0.4375-2.4102-0.21875-2.6328-1.5352-0.4375-1.0977 0.21875-2.4102 1.5352-2.6328h0.21875c3.7266-1.0977 8.7695-0.21875 14.469 0.65625 6.5781 1.3164 13.156 1.7539 19.953 1.0977 0.88281-0.21484 1.9766 0.44141 2.1953 1.7578z"/>
  <path d="m365.7 382.8c0 1.3164-0.87891 2.1914-2.1914 2.1914l-16.223 0.4375c-1.3164 0-2.1914-0.87891-2.1914-2.1914 0-1.3164 0.87891-2.1914 2.1914-2.1914l16.223-0.4375c1.0977 0 2.1914 1.0977 2.1914 2.1914z"/>
  <path d="m439.36 371.18c0.21875 1.0977-0.4375 2.4102-1.7539 2.6328-4.6055 1.0977-9.4297 1.9727-14.469 3.0703l-8.9883 1.7539c-12.715 2.4102-25.434 4.3867-38.148 5.4805h-0.21875c-1.3164 0-2.1914-0.87891-2.1914-2.1914 0-1.3164 0.87891-2.1914 2.1914-2.1914 14.031-1.3164 28.062-3.5078 41.875-6.3594 3.0703-0.65625 6.1406-1.3164 9.207-1.7539 3.5078-0.65625 6.7969-1.5352 10.086-2.1914 0.875-0.44531 1.9727 0.43359 2.4102 1.75v0z"/>
  <path d="m326.01 369.64h-3.9453c-1.3164 0-2.6328 0.21875-3.7266 0.65625 2.6328 1.9727 5.043 8.7695 5.6992 18.637h6.5781c-0.21875-6.7969-1.7539-13.375-4.6055-19.293zm163.78-7.6758c-2.4102-2.4102-5.6992-3.7266-9.207-3.9453-14.031-0.4375-28.723-1.7539-43.852-1.7539-2.6328 0-5.2617 0-8.1133 0.21875-8.1133 0.21875-16.223 1.0977-24.336 2.8516-26.75 5.043-53.715 7.4531-80.902 7.0156h-0.87891c-1.3164 0-2.6328 0.21875-3.9453 0.4375-6.3594 1.7539-11.84 7.2344-15.566 14.469-1.3164 2.4102-2.4102 5.043-3.0703 7.6719-0.65625 2.1914-1.0977 4.1641-1.3164 6.3594v0.21875c0 1.0977-0.21875 2.1914-0.21875 3.2891 0 4.8242-0.65625 9.6484-1.9727 14.469v0.21875c-1.3164 4.3867-1.5352 9.207-0.65625 13.812 0.21875 1.0977 0.65625 2.1914 0.87891 3.0703 2.4102 6.1406 8.5508 10.086 15.129 9.4297l0.65234 0.003907 4.6055-0.4375c14.031-0.87891 28.285-2.1914 42.535-3.7266l6.5781-0.875v-0.87891-2.4102c0-7.4531 1.7539-14.91 4.8242-21.926 0.87891-2.1914 2.4102-4.1641 3.9453-5.918 1.3164-1.5352 3.2891-2.6328 5.2617-2.8516 1.5352 0 2.8516 0.65625 3.9453 1.5352 2.8516 2.4102 5.043 5.6992 6.1406 9.207-0.21875 0-0.4375 0.21875-0.4375 0.4375l-8.332 8.9883c-2.1914 2.4102-3.7266 5.4805-4.3867 8.7695-0.21875 1.0977-0.21875 2.1914-0.21875 3.2891l2.1914-0.21875 2.1914-0.4375c0-1.0977 0.21875-2.1914 0.4375-3.5078 0.65625-1.9727 1.5352-3.7266 2.8516-5.2617l5.4805-5.918 1.7539-1.7539c0.87891 3.5078 1.5352 7.2344 1.9727 10.961 0 1.0977 0.21875 2.1914 0.21875 3.2891l3.2891-0.4375 3.2891-0.65625c0-1.0977-0.21875-2.1914-0.21875-3.2891-0.4375-8.7695-3.2891-17.102-8.1133-24.555 28.504-1.9727 57.004-1.7539 85.508 0.65625 6.7969 0.4375 13.375 0.4375 19.953 0.4375h3.2891c0.21875-1.0977 0.4375-2.1914 0.4375-3.2891s0.21875-2.1914 0.4375-3.2891c1.7578-12.281-2.8477-24.781-12.055-33.77zm-178.91 33.547 0.65625 1.5352c1.7539 4.6055 0.87891 9.8672-2.1914 13.812l-9.207 11.184c-0.21875-2.6328-0.4375-5.4805-0.21875-8.1133 0-3.9453 0.4375-7.8945 0.87891-11.84 0.4375-2.1914 0.65625-4.3867 1.0977-6.3594v-0.21875c0.4375-2.4102 1.0977-4.6055 1.7539-6.5781 0.4375-1.7539 1.0977-3.2891 1.7539-4.8242v0.21875l2.1914 4.6055zm-0.875 41.656c-0.87891 0.65625-1.9727 1.0977-3.0703 1.0977-1.5352-0.21875-3.0703-1.9727-4.1641-4.8242-0.65625-1.7539-1.3164-3.7266-1.7539-5.4805l11.84-14.25c4.1641-5.043 5.2617-11.84 2.8516-17.98v-0.21875l-3.0703-6.3594-3.0703-6.5781c-0.4375-0.87891-1.5352-1.3164-2.6328-1.0977h-0.21875c1.5352-3.9453 4.1641-7.6719 7.2344-10.523 0.87891-0.65625 1.9727-1.0977 3.0703-1.0977 0.4375 0 1.0977 0.21875 1.3164 0.65625 2.6328 1.9727 5.043 8.7695 5.6992 18.637 0.21875 2.1914 0.21875 4.3867 0 6.5781 0 3.5078-0.4375 7.0156-0.87891 10.305-2.1914 15.785-7.8945 26.531-12.277 30.695-0.21875 0.003906-0.65625 0.22266-0.875 0.44141zm168.38-41.219c-24.555-1.9727-49.113-2.4102-73.668-1.5352-4.8242 0.21875-9.6484 0.4375-14.469 0.87891h-5.2617c-3.0703-1.5352-6.5781-1.5352-9.6484 0-8.9883 3.9453-15.348 18.637-15.785 36.836-12.496 1.3164-25.652 2.6328-39.902 3.7266 5.2617-8.9883 8.5508-18.855 9.8672-29.16 0.65625-3.7266 0.87891-7.4531 0.87891-11.402v-6.5781c0-6.7969-1.5352-13.375-4.6055-19.293 26.531 0.21875 53.059-2.1914 79.148-7.2344 7.0156-1.5352 14.25-2.4102 21.488-2.6328 2.6328-0.21875 5.2617-0.21875 8.1133-0.21875 9.8672 0 19.512 0.4375 29.16 0.87891 5.4805 0.21875 11.184 0.65625 16.664 0.87891 2.6328 0 5.043 1.0977 7.0156 3.0703 8.5508 8.332 12.715 20.391 11.402 32.23-6.5859 0.21094-13.602-0.007813-20.398-0.44531zm-169.04-13.594c-0.4375-0.87891-1.5352-1.3164-2.6328-1.0977-0.21875 0.4375-0.4375 0.87891-0.65625 1.3164s-0.4375 1.0977-0.65625 1.5352v0.21875l2.1914 4.6055h4.8242zm16.664-12.715h-3.9453c-1.3164 0-2.6328 0.21875-3.7266 0.65625 2.6328 1.9727 5.043 8.7695 5.6992 18.637h6.5781c-0.21875-6.7969-1.7539-13.375-4.6055-19.293z"/>
  <path d="m381.92 429.5-2.4102 0.4375-2.1914 0.4375c-0.21875 1.0977-0.21875 2.1914-0.21875 3.2891 0 1.0977 0.21875 2.1914 0.4375 3.2891l4.3828-0.4375c-0.4375-2.6328-0.4375-4.8242 0-7.0156zm110.28-69.941c-3.0703-3.0703-7.2344-4.8242-11.402-4.8242-5.4805-0.21875-10.742-0.4375-16.445-0.87891-8.332-0.4375-16.664-0.87891-25.215-0.87891h-7.8945c-9.207 0.21875-18.199 1.3164-27.188 3.0703-25.871 5.043-51.961 7.4531-78.273 7.0156h-3.0703c-1.3164 0-2.6328 0.21875-3.7266 0.4375-4.6055 1.0977-8.5508 3.5078-11.84 6.7969-2.6328 2.6328-5.043 5.918-6.7969 9.207-1.5352 3.0703-2.8516 6.1406-3.7266 9.4297-0.4375 1.9727-0.87891 3.9453-1.0977 5.918v0.65625c-0.21875 1.0977-0.21875 2.1914-0.21875 3.2891 0 4.6055-0.65625 9.207-1.7539 13.594v0.4375c-2.4102 9.4297-1.0977 17.98 3.5078 23.68l0.65625 0.65625c3.5078 3.7266 8.5508 5.918 13.594 5.6992h1.5352 0.4375c16.664-1.0977 32.23-2.4102 46.699-4.1641l6.5781-0.875v-3.2891-0.87891-2.4102l-6.5781 0.875c-12.496 1.3164-25.652 2.6328-39.902 3.7266l-4.1641 0.21875-3.0703 0.21875h-1.5352c-0.21875 0.21875-0.4375 0.4375-0.87891 0.65625-0.87891 0.65625-1.9727 1.0977-3.0703 1.0977-1.5352-0.21875-3.0703-1.9727-4.1641-4.8242-0.21875-0.21875-0.65625-0.65625-0.87891-0.87891-0.87891-0.87891-1.5352-2.1914-1.9727-3.2891-0.65625-1.7539-1.0977-3.5078-1.3164-5.4805-0.21875-3.2891 0.21875-6.5781 1.0977-9.6484v-0.21875c0-3.9453 0.4375-7.8945 0.87891-11.84 0.4375-2.1914 0.65625-4.3867 1.0977-6.3594v-0.21875c0.21875-2.1914 0.65625-4.3867 1.5352-6.5781 0.4375-1.7539 1.0977-3.2891 1.9727-4.8242 0.21875-0.4375 0.4375-0.87891 0.65625-1.3164s0.4375-0.87891 0.65625-1.3164h-0.21875c1.5352-3.9453 4.1641-7.6719 7.2344-10.523 0.87891-0.65625 1.9727-1.0977 3.0703-1.0977 0.4375 0 1.0977 0.21875 1.3164 0.65625 1.3164-0.4375 2.4102-0.65625 3.7266-0.87891h3.9453c26.531 0.21875 53.059-2.1914 79.148-7.2344 7.0156-1.5352 14.25-2.4102 21.488-2.6328 2.6328-0.21875 5.2617-0.21875 8.1133-0.21875 9.8672 0 19.512 0.4375 29.16 0.87891 5.4805 0.21875 11.184 0.65625 16.664 0.87891 2.6328 0 5.043 1.0977 7.0156 3.0703 8.5508 8.332 12.715 20.391 11.402 32.23 0 1.0977-0.21875 2.1914-0.4375 3.2891-0.21875 1.0977-0.21875 1.9727-0.4375 2.8516v0.4375h6.5781c0.21875-1.0977 0.4375-2.1914 0.4375-3.2891 0-1.0977 0.21875-2.1914 0.21875-3.2891 1.543-13.578-3.2812-27.172-13.148-36.816zm-91.426 70.16c0-1.0977-0.21875-2.1914-0.21875-3.2891l-6.5781 1.3125c0 1.0977 0.21875 2.1914 0.21875 3.2891v3.0703 0.21875l3.2891-0.4375 3.2891-0.65625v-3.5078z"/>
  <path d="m327.33 388.94c-0.4375-8.5508-2.1914-15.566-5.2617-19.293-0.87891-1.3164-1.9727-2.1914-3.5078-2.8516-0.4375-0.21875-0.87891-0.21875-1.3164-0.4375-5.043-0.87891-10.305 5.043-14.469 14.691-1.0977 2.4102-1.9727 5.043-2.8516 7.6719-0.65625 1.9727-1.0977 4.1641-1.5352 6.3594v0.21875c-0.4375 1.9727-0.87891 3.9453-1.0977 6.1406-0.65625 3.9453-0.87891 7.8945-0.87891 11.84 0 3.9453 0.21875 8.1133 0.65625 12.059 0.21875 1.7539 0.65625 3.2891 0.87891 5.043 0.4375 1.5352 1.0977 3.2891 1.7539 4.6055 1.7539 3.5078 3.9453 5.918 6.5781 6.3594 1.9727 0.21875 4.1641-0.4375 5.6992-1.7539 1.3164-1.0977 2.4102-2.1914 3.5078-3.5078 4.8242-6.1406 8.9883-17.102 10.961-30.039 0.4375-3.7266 0.87891-7.2344 0.87891-10.961 0.003906-1.7617 0.003906-3.9531 0.003906-6.1445zm-16.445 6.5781 0.65625 1.5352c1.7539 4.6055 0.87891 9.8672-2.1914 13.812l-9.207 11.184c-0.21875-2.6328-0.4375-5.4805-0.21875-8.1133 0-3.9453 0.4375-7.8945 0.87891-11.84 0.4375-2.1914 0.65625-4.3867 1.0977-6.3594v-0.21875c0.4375-2.4102 1.0977-4.6055 1.7539-6.5781 0.4375-1.7539 1.0977-3.2891 1.7539-4.8242v0.21875l2.1914 4.6055zm12.059 10.305c-2.1914 15.785-7.8945 26.531-12.277 30.695-0.21875 0.21875-0.4375 0.4375-0.87891 0.65625-0.87891 0.65625-1.9727 1.0977-3.0703 1.0977-1.5352-0.21875-3.0703-1.9727-4.1641-4.8242-0.65625-1.7539-1.3164-3.7266-1.7539-5.4805l11.84-14.25c4.1641-5.043 5.2617-12.059 2.8516-17.98v-0.21875l-3.0703-6.3594-3.0703-6.5781c-0.4375-0.87891-1.5352-1.3164-2.6328-1.0977h-0.21875c1.5352-3.9453 4.1641-7.6719 7.2344-10.523 0.87891-0.65625 1.9727-1.0977 3.0703-1.0977 0.4375 0 1.0977 0.21875 1.3164 0.65625 2.6328 1.9727 5.043 8.7695 5.6992 18.637 0.21875 2.1914 0.21875 4.3867 0 6.5781 0.003906 3.293-0.21484 6.8008-0.875 10.09z"/>
  <path d="m330.4 388.94c0-6.7969-1.5352-13.375-4.6055-19.293-0.65625-1.0977-1.5352-2.1914-2.4102-3.2891-1.3164-1.3164-2.8516-2.4102-4.8242-2.8516-0.21875 0-0.4375-0.21875-0.65625-0.21875-2.8516-0.4375-5.6992 0.4375-8.1133 2.1914-4.3867 3.7266-7.6719 8.332-9.6484 13.594l-0.21875 0.4375c-1.3164 3.0703-2.4102 6.1406-3.2891 9.4297-0.4375 1.9727-1.0977 3.9453-1.5352 5.918 0 0.21875-0.21875 0.4375-0.21875 0.65625-0.4375 1.7539-0.65625 3.7266-1.0977 5.6992-0.65625 3.9453-0.87891 7.8945-0.87891 11.84-0.21875 9.4297 1.0977 18.418 3.9453 24.336 1.5352 3.7266 4.6055 6.5781 8.5508 7.4531h1.5352c1.9727 0 3.9453-0.65625 5.6992-1.7539l0.87891-0.4375c1.0977-0.87891 2.1914-1.9727 3.2891-3.0703 0.87891-1.0977 1.7539-2.1914 2.6328-3.5078 5.2617-8.9883 8.5508-18.855 9.8672-29.16 0.65625-3.7266 0.87891-7.4531 0.87891-11.402 0.4375-2.1875 0.4375-4.3789 0.21875-6.5703zm-7.457 16.883c-2.1914 15.785-7.8945 26.531-12.277 30.695-0.21875 0.21875-0.4375 0.4375-0.87891 0.65625-0.87891 0.65625-1.9727 1.0977-3.0703 1.0977-1.5352-0.21875-3.0703-1.9727-4.1641-4.8242-0.65625-1.7539-1.3164-3.7266-1.7539-5.4805-0.4375-1.9727-0.65625-3.9453-0.87891-5.918-0.21875-2.6328-0.4375-5.4805-0.21875-8.1133 0-3.9453 0.4375-7.8945 0.87891-11.84 0.4375-2.1914 0.65625-4.3867 1.0977-6.3594v-0.21875c0.4375-2.4102 1.0977-4.6055 1.7539-6.5781 0.4375-1.7539 1.0977-3.2891 1.7539-4.8242 0.21875-0.4375 0.4375-1.0977 0.65625-1.5352s0.4375-0.87891 0.4375-1.3164c1.5352-3.9453 4.1641-7.6719 7.2344-10.523 0.87891-0.65625 1.9727-1.0977 3.0703-1.0977 0.4375 0 1.0977 0.21875 1.3164 0.65625 2.6328 1.9727 5.043 8.7695 5.6992 18.637 0.21875 2.1914 0.21875 4.3867 0 6.5781 0.22266 3.5117 0.003906 7.0195-0.65625 10.309z"/>
  <path d="m312.64 413.49-11.84 14.25-1.0977 1.3164-0.4375 0.65625c-0.21875 0.4375-0.65625 0.65625-1.3164 0.65625h-0.4375c-0.21875 0-0.65625 0-0.87891-0.21875-0.21875 0-0.4375-0.21875-0.4375-0.21875-0.87891-0.65625-1.0977-1.9727-0.4375-2.8516l0.21875-0.21875 1.0977-1.3164 1.5352-1.7539 1.3164-1.7539 9.207-11.402c3.0703-3.9453 3.9453-8.9883 2.1914-13.812l-0.65625-1.5352-3.0703-6.5781-2.1914-4.6055v-0.4375c-0.21875-1.0977 0.21875-2.1914 1.0977-2.6328h0.21875c1.0977-0.4375 2.1914 0.21875 2.6328 1.0977l3.0703 6.5781 2.8516 6.1406v0.21875c2.625 6.582 1.5312 13.379-2.6367 18.422z"/>
  <path d="m365.7 382.8c0 1.3164-0.87891 2.1914-2.1914 2.1914l-16.223 0.4375c-1.3164 0-2.1914-0.87891-2.1914-2.1914 0-1.3164 0.87891-2.1914 2.1914-2.1914l16.223-0.4375c1.0977 0 2.1914 1.0977 2.1914 2.1914z"/>
  <path d="m437.61 373.59c-4.6055 1.0977-9.4297 1.9727-14.469 3.0703l-8.9883 1.7539c-12.715 2.4102-25.434 4.3867-38.148 5.4805h-0.21875c-1.3164 0-2.1914-0.87891-2.1914-2.1914 0-1.3164 0.87891-2.1914 2.1914-2.1914 14.031-1.3164 28.062-3.5078 41.875-6.3594 3.0703-0.65625 6.1406-1.3164 9.207-1.7539 3.5078-0.65625 6.7969-1.5352 10.086-2.1914 1.0977-0.21875 2.4102 0.4375 2.6328 1.7539 0 1.0938-0.66016 2.4102-1.9766 2.6289z"/>
  <path d="m432.35 413.93h-21.266c-1.3164 0-2.1914 0.87891-2.1914 2.1914 0 1.3164 0.87891 2.1914 2.1914 2.1914h21.266c1.3164 0 2.1914-0.87891 2.1914-2.1914 0.003907-1.3164-0.875-2.1914-2.1914-2.1914zm50.648 0.875c-6.5781 0.65625-13.375 0.4375-19.953-1.0977-5.6992-0.87891-10.742-1.7539-14.469-0.65625-1.0977 0.21875-1.9727 1.5352-1.5352 2.6328 0.21875 1.0977 1.5352 1.9727 2.6328 1.5352h0.21875c2.8516-0.87891 7.4531 0 12.715 0.87891 4.8242 0.87891 9.6484 1.5352 14.691 1.5352 2.1914 0 4.3867-0.21875 6.5781-0.4375 1.3164-0.21875 1.9727-1.3164 1.7539-2.6328-0.44141-1.1016-1.5352-1.9766-2.6328-1.7578zm0 0c-6.5781 0.65625-13.375 0.4375-19.953-1.0977-5.6992-0.87891-10.742-1.7539-14.469-0.65625-1.0977 0.21875-1.9727 1.5352-1.5352 2.6328 0.21875 1.0977 1.5352 1.9727 2.6328 1.5352h0.21875c2.8516-0.87891 7.4531 0 12.715 0.87891 4.8242 0.87891 9.6484 1.5352 14.691 1.5352 2.1914 0 4.3867-0.21875 6.5781-0.4375 1.3164-0.21875 1.9727-1.3164 1.7539-2.6328-0.44141-1.1016-1.5352-1.9766-2.6328-1.7578zm-50.648-0.875h-21.266c-1.3164 0-2.1914 0.87891-2.1914 2.1914 0 1.3164 0.87891 2.1914 2.1914 2.1914h21.266c1.3164 0 2.1914-0.87891 2.1914-2.1914 0.003907-1.3164-0.875-2.1914-2.1914-2.1914zm0 0h-21.266c-1.3164 0-2.1914 0.87891-2.1914 2.1914 0 1.3164 0.87891 2.1914 2.1914 2.1914h21.266c1.3164 0 2.1914-0.87891 2.1914-2.1914 0.003907-1.3164-0.875-2.1914-2.1914-2.1914zm50.648 0.875c-6.5781 0.65625-13.375 0.4375-19.953-1.0977-5.6992-0.87891-10.742-1.7539-14.469-0.65625-1.0977 0.21875-1.9727 1.5352-1.5352 2.6328 0.21875 1.0977 1.5352 1.9727 2.6328 1.5352h0.21875c2.8516-0.87891 7.4531 0 12.715 0.87891 4.8242 0.87891 9.6484 1.5352 14.691 1.5352 2.1914 0 4.3867-0.21875 6.5781-0.4375 1.3164-0.21875 1.9727-1.3164 1.7539-2.6328-0.44141-1.1016-1.5352-1.9766-2.6328-1.7578zm0 0c-6.5781 0.65625-13.375 0.4375-19.953-1.0977-5.6992-0.87891-10.742-1.7539-14.469-0.65625-1.0977 0.21875-1.9727 1.5352-1.5352 2.6328 0.21875 1.0977 1.5352 1.9727 2.6328 1.5352h0.21875c2.8516-0.87891 7.4531 0 12.715 0.87891 4.8242 0.87891 9.6484 1.5352 14.691 1.5352 2.1914 0 4.3867-0.21875 6.5781-0.4375 1.3164-0.21875 1.9727-1.3164 1.7539-2.6328-0.44141-1.1016-1.5352-1.9766-2.6328-1.7578zm-50.648-0.875h-21.266c-1.3164 0-2.1914 0.87891-2.1914 2.1914 0 1.3164 0.87891 2.1914 2.1914 2.1914h21.266c1.3164 0 2.1914-0.87891 2.1914-2.1914 0.003907-1.3164-0.875-2.1914-2.1914-2.1914zm0 0h-21.266c-1.3164 0-2.1914 0.87891-2.1914 2.1914 0 1.3164 0.87891 2.1914 2.1914 2.1914h21.266c1.3164 0 2.1914-0.87891 2.1914-2.1914 0.003907-1.3164-0.875-2.1914-2.1914-2.1914zm50.648 0.875c-6.5781 0.65625-13.375 0.4375-19.953-1.0977-5.6992-0.87891-10.742-1.7539-14.469-0.65625-1.0977 0.21875-1.9727 1.5352-1.5352 2.6328 0.21875 1.0977 1.5352 1.9727 2.6328 1.5352h0.21875c2.8516-0.87891 7.4531 0 12.715 0.87891 4.8242 0.87891 9.6484 1.5352 14.691 1.5352 2.1914 0 4.3867-0.21875 6.5781-0.4375 1.3164-0.21875 1.9727-1.3164 1.7539-2.6328-0.44141-1.1016-1.5352-1.9766-2.6328-1.7578zm0 0c-6.5781 0.65625-13.375 0.4375-19.953-1.0977-5.6992-0.87891-10.742-1.7539-14.469-0.65625-1.0977 0.21875-1.9727 1.5352-1.5352 2.6328 0.21875 1.0977 1.5352 1.9727 2.6328 1.5352h0.21875c2.8516-0.87891 7.4531 0 12.715 0.87891 4.8242 0.87891 9.6484 1.5352 14.691 1.5352 2.1914 0 4.3867-0.21875 6.5781-0.4375 1.3164-0.21875 1.9727-1.3164 1.7539-2.6328-0.44141-1.1016-1.5352-1.9766-2.6328-1.7578zm-50.648-0.875h-21.266c-1.3164 0-2.1914 0.87891-2.1914 2.1914 0 1.3164 0.87891 2.1914 2.1914 2.1914h21.266c1.3164 0 2.1914-0.87891 2.1914-2.1914 0.003907-1.3164-0.875-2.1914-2.1914-2.1914zm125.85-13.594c-1.9727-3.2891-5.4805-5.2617-9.4297-4.8242-14.469 2.4102-29.16 3.7266-43.852 3.9453h-3.2891-3.2891c-6.7969 0-13.594-0.21875-20.391-0.4375-29.379-2.4102-58.758-2.6328-88.141-0.4375l-4.6055 0.4375c-3.2891 0.21875-6.5781 0.65625-9.8672 1.0977-0.21875 1.0977-0.21875 2.4102-0.4375 3.5078 1.3164-1.5352 3.2891-2.6328 5.2617-2.8516 1.5352 0 2.8516 0.65625 3.9453 1.5352 2.8516 2.4102 5.043 5.6992 6.1406 9.207-0.21875 0-0.4375 0.21875-0.4375 0.4375l-8.332 8.9883c-2.1914 2.4102-3.7266 5.4805-4.3867 8.7695-0.21875 1.0977-0.21875 2.1914-0.21875 3.2891s0.21875 2.1914 0.4375 3.2891c0.65625 2.8516 1.9727 5.4805 3.7266 7.4531 0.65625 0.65625 1.3164 1.5352 1.7539 2.4102 0.65625 1.0977 1.0977 2.4102 0.87891 3.9453-0.4375 2.6328-1.7539 5.043-3.7266 7.0156-0.65625 0.87891-1.5352 1.5352-2.6328 2.4102l-0.21875 0.21875c-0.65625 0.87891-0.65625 1.9727 0 2.8516l0.21875 0.21875c0.4375 0.4375 0.87891 0.4375 1.3164 0.4375s1.0977-0.21875 1.5352-0.4375c5.043-4.3867 7.4531-8.332 7.8945-12.277 0-3.5078-1.3164-6.7969-3.7266-9.4297l-0.21875-0.21875c-1.3164-1.5352-2.1914-3.2891-2.6328-5.043-0.65625-2.1914-0.4375-4.3867 0.21875-6.5781 0.65625-1.9727 1.5352-3.7266 2.8516-5.2617l5.4805-5.918 1.7539-1.7539c0.87891 3.5078 1.5352 7.2344 1.9727 10.961 0 1.0977 0.21875 2.1914 0.21875 3.2891v3.0703 0.21875c0 19.293-7.4531 32.668-14.031 32.668-0.65625 0-1.5352-0.21875-2.1914-0.4375-1.3164-0.65625-2.6328-1.5352-3.5078-2.6328 0.21875 1.0977 0.21875 2.4102 0.4375 3.5078 0 0.65625 0.21875 1.0977 0.4375 1.5352 0.4375 1.7539 2.1914 3.0703 3.9453 2.8516l8.9883-1.0977c26.309-3.2891 51.742-7.2344 77.395-4.6055 17.98 2.4102 36.176 2.4102 54.156 0 8.332-2.4102 17.98-1.7539 28.062 0.65625 6.5781 1.5352 12.938-3.0703 15.348-11.402 6.5859-22.129 4.6133-40.109-4.8125-54.578zm1.7539 53.715c-1.7539 6.3594-6.5781 10.086-11.402 8.9883-11.402-2.6328-21.047-2.8516-29.379-0.65625-17.539 2.4102-35.52 2.4102-53.059 0-23.461-2.1914-46.262 0.65625-70.379 3.7266l-3.7266 0.4375c5.4805-7.0156 8.9883-18.855 8.9883-32.668v-0.875-3.2891c0-1.0977-0.21875-2.1914-0.21875-3.2891-0.4375-8.7695-3.2891-17.102-8.1133-24.555 28.504-1.9727 57.004-1.7539 85.508 0.65625 6.7969 0.4375 13.375 0.4375 19.953 0.4375h6.5781c15.129-0.21875 30.039-1.7539 44.727-3.9453 2.4102-0.21875 4.8242 1.0977 6.1406 3.2891 8.7656 13.594 10.301 30.914 4.3828 51.742zm-76.957-39.246c-6.5781 0.65625-13.375 0.4375-19.953-1.0977-5.6992-0.87891-10.742-1.7539-14.469-0.65625-1.0977 0.21875-1.9727 1.5352-1.5352 2.6328 0.21875 1.0977 1.5352 1.9727 2.6328 1.5352h0.21875c2.8516-0.87891 7.4531 0 12.715 0.87891 4.8242 0.87891 9.6484 1.5352 14.691 1.5352 2.1914 0 4.3867-0.21875 6.5781-0.4375 1.3164-0.21875 1.9727-1.3164 1.7539-2.6328-0.44141-1.1016-1.5352-1.9766-2.6328-1.7578zm-50.648-0.875h-21.266c-1.3164 0-2.1914 0.87891-2.1914 2.1914 0 1.3164 0.87891 2.1914 2.1914 2.1914h21.266c1.3164 0 2.1914-0.87891 2.1914-2.1914 0.003907-1.3164-0.875-2.1914-2.1914-2.1914zm0 0h-21.266c-1.3164 0-2.1914 0.87891-2.1914 2.1914 0 1.3164 0.87891 2.1914 2.1914 2.1914h21.266c1.3164 0 2.1914-0.87891 2.1914-2.1914 0.003907-1.3164-0.875-2.1914-2.1914-2.1914zm50.648 0.875c-6.5781 0.65625-13.375 0.4375-19.953-1.0977-5.6992-0.87891-10.742-1.7539-14.469-0.65625-1.0977 0.21875-1.9727 1.5352-1.5352 2.6328 0.21875 1.0977 1.5352 1.9727 2.6328 1.5352h0.21875c2.8516-0.87891 7.4531 0 12.715 0.87891 4.8242 0.87891 9.6484 1.5352 14.691 1.5352 2.1914 0 4.3867-0.21875 6.5781-0.4375 1.3164-0.21875 1.9727-1.3164 1.7539-2.6328-0.44141-1.1016-1.5352-1.9766-2.6328-1.7578zm0 0c-6.5781 0.65625-13.375 0.4375-19.953-1.0977-5.6992-0.87891-10.742-1.7539-14.469-0.65625-1.0977 0.21875-1.9727 1.5352-1.5352 2.6328 0.21875 1.0977 1.5352 1.9727 2.6328 1.5352h0.21875c2.8516-0.87891 7.4531 0 12.715 0.87891 4.8242 0.87891 9.6484 1.5352 14.691 1.5352 2.1914 0 4.3867-0.21875 6.5781-0.4375 1.3164-0.21875 1.9727-1.3164 1.7539-2.6328-0.44141-1.1016-1.5352-1.9766-2.6328-1.7578zm-50.648-0.875h-21.266c-1.3164 0-2.1914 0.87891-2.1914 2.1914 0 1.3164 0.87891 2.1914 2.1914 2.1914h21.266c1.3164 0 2.1914-0.87891 2.1914-2.1914 0.003907-1.3164-0.875-2.1914-2.1914-2.1914zm0 0h-21.266c-1.3164 0-2.1914 0.87891-2.1914 2.1914 0 1.3164 0.87891 2.1914 2.1914 2.1914h21.266c1.3164 0 2.1914-0.87891 2.1914-2.1914 0.003907-1.3164-0.875-2.1914-2.1914-2.1914zm50.648 0.875c-6.5781 0.65625-13.375 0.4375-19.953-1.0977-5.6992-0.87891-10.742-1.7539-14.469-0.65625-1.0977 0.21875-1.9727 1.5352-1.5352 2.6328 0.21875 1.0977 1.5352 1.9727 2.6328 1.5352h0.21875c2.8516-0.87891 7.4531 0 12.715 0.87891 4.8242 0.87891 9.6484 1.5352 14.691 1.5352 2.1914 0 4.3867-0.21875 6.5781-0.4375 1.3164-0.21875 1.9727-1.3164 1.7539-2.6328-0.44141-1.1016-1.5352-1.9766-2.6328-1.7578zm0 0c-6.5781 0.65625-13.375 0.4375-19.953-1.0977-5.6992-0.87891-10.742-1.7539-14.469-0.65625-1.0977 0.21875-1.9727 1.5352-1.5352 2.6328 0.21875 1.0977 1.5352 1.9727 2.6328 1.5352h0.21875c2.8516-0.87891 7.4531 0 12.715 0.87891 4.8242 0.87891 9.6484 1.5352 14.691 1.5352 2.1914 0 4.3867-0.21875 6.5781-0.4375 1.3164-0.21875 1.9727-1.3164 1.7539-2.6328-0.44141-1.1016-1.5352-1.9766-2.6328-1.7578zm-50.648-0.875h-21.266c-1.3164 0-2.1914 0.87891-2.1914 2.1914 0 1.3164 0.87891 2.1914 2.1914 2.1914h21.266c1.3164 0 2.1914-0.87891 2.1914-2.1914 0.003907-1.3164-0.875-2.1914-2.1914-2.1914z"/>
  <path d="m377.32 459.97c-0.65625 0.87891-0.65625 1.9727 0 2.8516l0.21875 0.21875c0-0.875-0.21875-1.9727-0.21875-3.0703zm183.73-61.387c-2.6328-4.3867-7.6719-6.7969-12.715-6.1406-14.25 2.1914-28.504 3.7266-42.973 3.9453h-6.5781c-6.7969 0-13.594-0.21875-20.609-0.4375-24.555-1.9727-49.113-2.4102-73.668-1.5352-4.8242 0.21875-9.6484 0.4375-14.469 0.87891-1.5352 0-3.0703 0.21875-4.3867 0.4375-3.7266 0.21875-7.2344 0.65625-10.961 1.0977-1.5352 0.21875-2.6328 1.3164-2.8516 2.8516-0.21875 0.87891-0.21875 1.7539-0.4375 2.6328-0.21875 2.4102-0.65625 4.8242-0.87891 7.4531 0.87891-2.1914 2.4102-4.1641 3.9453-5.918 1.3164-1.5352 3.2891-2.6328 5.2617-2.8516 1.5352 0 2.8516 0.65625 3.9453 1.5352l4.3867-0.4375c1.3164 0 2.6328-0.21875 3.9453-0.21875 28.504-1.9727 57.004-1.7539 85.508 0.65625 6.7969 0.4375 13.375 0.4375 19.953 0.4375h6.5781c15.129-0.21875 30.039-1.7539 44.727-3.9453 2.4102-0.21875 4.8242 1.0977 6.1406 3.2891 8.9883 13.594 10.523 31.133 4.3867 51.961-1.7539 6.3594-6.5781 10.086-11.402 8.9883-11.402-2.6328-21.047-2.8516-29.379-0.65625-17.539 2.4102-35.52 2.4102-53.059 0-23.461-2.1914-46.262 0.65625-70.379 3.7266l-3.7266 0.4375-4.8242 0.65625-8.1133 0.87891c-0.21875 0-0.65625-0.4375-0.87891-1.7539v-0.21875c-1.5352-0.65625-2.6328-1.5352-3.7266-2.8516-1.5352-1.9727-2.8516-3.9453-3.9453-6.3594 0.21875 2.6328 0.4375 5.2617 0.65625 7.6719 0 0.87891 0.21875 1.7539 0.21875 2.4102 0.21875 1.0977 0.4375 2.1914 1.0977 3.2891 1.0977 2.4102 3.5078 3.9453 6.3594 4.1641h0.65625c5.6992-0.65625 11.184-1.3164 16.883-1.9727 23.68-3.0703 46.262-5.918 68.844-3.7266 18.199 2.4102 36.836 2.4102 55.031 0h0.4375c7.2344-1.9727 16.004-1.7539 26.309 0.65625 8.332 1.9727 16.445-3.7266 19.293-13.594 2.4102-8.1133 3.7266-16.664 3.9453-25.215 0.66406-11.395-2.4062-22.578-8.5469-32.223z"/>
  <path d="m384.99 424.24 5.4805-5.918 1.7539-1.7539c-0.21875-0.65625-0.4375-1.3164-0.65625-1.9727v-0.4375c-0.21875-0.65625-0.4375-1.5352-0.87891-2.1914-0.21875 0-0.4375 0.21875-0.4375 0.4375l-8.332 8.9883c-2.1914 2.4102-3.7266 5.4805-4.3867 8.7695-0.21875 1.0977-0.21875 2.1914-0.21875 3.2891 0 1.0977 0.21875 2.1914 0.4375 3.2891 0.65625 2.8516 1.9727 5.4805 3.7266 7.4531 0.65625 0.65625 1.3164 1.5352 1.7539 2.4102 0.65625 1.0977 1.0977 2.4102 0.87891 3.9453-0.4375 2.6328-1.7539 5.043-3.7266 7.0156-0.65625 0.87891-1.5352 1.5352-2.6328 2.4102l-0.21875 0.21875c-0.65625 0.87891-0.65625 1.9727 0 2.8516l0.21875 0.21875c0.4375 0.4375 0.87891 0.4375 1.3164 0.4375s1.0977-0.21875 1.5352-0.4375c5.043-4.3867 7.4531-8.332 7.8945-12.277 0-3.5078-1.3164-6.7969-3.7266-9.4297l-0.21875-0.21875c-1.3164-1.5352-2.1914-3.2891-2.6328-5.043-0.65625-2.1914-0.4375-4.3867 0.21875-6.5781 0.4375-2.1914 1.3164-3.9453 2.8516-5.4766zm0 0 5.4805-5.918 1.7539-1.7539c-0.21875-0.65625-0.4375-1.3164-0.65625-1.9727v-0.4375c-0.21875-0.65625-0.4375-1.5352-0.87891-2.1914-0.21875 0-0.4375 0.21875-0.4375 0.4375l-8.332 8.9883c-2.1914 2.4102-3.7266 5.4805-4.3867 8.7695-0.21875 1.0977-0.21875 2.1914-0.21875 3.2891 0 1.0977 0.21875 2.1914 0.4375 3.2891 0.65625 2.8516 1.9727 5.4805 3.7266 7.4531 0.65625 0.65625 1.3164 1.5352 1.7539 2.4102 0.65625 1.0977 1.0977 2.4102 0.87891 3.9453-0.4375 2.6328-1.7539 5.043-3.7266 7.0156-0.65625 0.87891-1.5352 1.5352-2.6328 2.4102l-0.21875 0.21875c-0.65625 0.87891-0.65625 1.9727 0 2.8516l0.21875 0.21875c0.4375 0.4375 0.87891 0.4375 1.3164 0.4375s1.0977-0.21875 1.5352-0.4375c5.043-4.3867 7.4531-8.332 7.8945-12.277 0-3.5078-1.3164-6.7969-3.7266-9.4297l-0.21875-0.21875c-1.3164-1.5352-2.1914-3.2891-2.6328-5.043-0.65625-2.1914-0.4375-4.3867 0.21875-6.5781 0.4375-2.1914 1.3164-3.9453 2.8516-5.4766zm12.496 6.1367c0-1.0977-0.21875-2.1914-0.21875-3.2891-0.87891-10.742-4.1641-19.734-8.5508-24.773-1.0977-1.0977-2.1914-2.1914-3.5078-3.0703-1.5352-0.87891-3.2891-1.5352-4.8242-1.5352-3.2891 0.21875-6.5781 1.9727-8.5508 4.6055-5.043 5.918-8.5508 16.883-8.7695 29.598v1.9727 1.3164c0 1.0977 0 2.1914 0.21875 3.2891 0.65625 11.184 3.7266 20.609 8.1133 26.309 1.0977 1.5352 2.4102 2.6328 3.9453 3.7266 1.5352 1.0977 3.2891 1.5352 5.043 1.5352 2.4102 0 4.8242-1.0977 6.7969-2.8516 6.1406-5.4805 10.523-18.418 10.523-33.324v-0.21875c-0.21875-1.0977-0.21875-2.1914-0.21875-3.2891zm-17.32 36.395c-0.65625 0-1.5352-0.21875-2.1914-0.4375-1.3164-0.65625-2.6328-1.5352-3.7266-2.8516-1.5352-1.9727-2.8516-3.9453-3.9453-6.3594-2.6328-5.918-3.9453-12.496-4.1641-18.855v-3.2891-0.87891-2.4102c0-7.4531 1.7539-14.91 4.8242-21.926 0.87891-2.1914 2.4102-4.1641 3.9453-5.918 1.3164-1.5352 3.2891-2.6328 5.2617-2.8516 1.5352 0 2.8516 0.65625 3.9453 1.5352 2.8516 2.4102 5.043 5.6992 6.1406 9.207-0.21875 0-0.4375 0.21875-0.4375 0.4375l-8.332 8.9883c-2.1914 2.4102-3.7266 5.4805-4.3867 8.7695-0.21875 1.0977-0.21875 2.1914-0.21875 3.2891s0.21875 2.1914 0.4375 3.2891c0.65625 2.8516 1.9727 5.4805 3.7266 7.4531 0.65625 0.65625 1.3164 1.5352 1.7539 2.4102 0.65625 1.0977 1.0977 2.4102 0.87891 3.9453-0.4375 2.6328-1.7539 5.043-3.7266 7.0156-0.65625 0.87891-1.5352 1.5352-2.6328 2.4102l-0.21875 0.21875c-0.65625 0.87891-0.65625 1.9727 0 2.8516l0.21875 0.21875c0.4375 0.4375 0.87891 0.4375 1.3164 0.4375s1.0977-0.21875 1.5352-0.4375c5.043-4.3867 7.4531-8.332 7.8945-12.277 0-3.5078-1.3164-6.7969-3.7266-9.4297l-0.21875-0.21875c-1.3164-1.5352-2.1914-3.2891-2.6328-5.043-0.65625-2.1914-0.4375-4.3867 0.21875-6.5781 0.65625-1.9727 1.5352-3.7266 2.8516-5.2617l5.4805-5.918 1.7539-1.7539c0.87891 3.5078 1.5352 7.2344 1.9727 10.961 0 1.0977 0.21875 2.1914 0.21875 3.2891v3.0703 0.21875c0.21484 19.309-7.2383 32.68-13.816 32.68zm4.8242-42.531 5.4805-5.918 1.7539-1.7539c-0.21875-0.65625-0.4375-1.3164-0.65625-1.9727v-0.4375c-0.21875-0.65625-0.4375-1.5352-0.87891-2.1914-0.21875 0-0.4375 0.21875-0.4375 0.4375l-8.332 8.9883c-2.1914 2.4102-3.7266 5.4805-4.3867 8.7695-0.21875 1.0977-0.21875 2.1914-0.21875 3.2891 0 1.0977 0.21875 2.1914 0.4375 3.2891 0.65625 2.8516 1.9727 5.4805 3.7266 7.6719 0.65625 0.65625 1.3164 1.5352 1.7539 2.4102 0.65625 1.0977 1.0977 2.4102 0.87891 3.9453-0.4375 2.6328-1.7539 5.043-3.7266 7.0156-0.65625 0.87891-1.5352 1.5352-2.6328 2.4102l-0.21875 0.21875c-0.65625 0.87891-0.65625 1.9727 0 2.8516l0.21875 0.21875c0.4375 0.4375 0.87891 0.4375 1.3164 0.4375s1.0977-0.21875 1.5352-0.4375c5.043-4.3867 7.4531-8.332 7.8945-12.277 0-3.5078-1.3164-6.7969-3.7266-9.4297l-0.21875-0.21875c-1.3164-1.5352-2.1914-3.2891-2.6328-5.043-0.65625-2.1914-0.4375-4.3867 0.21875-6.5781 0.4375-2.4102 1.3164-4.1641 2.8516-5.6953z"/>
  <path d="m400.78 429.72c0-1.0977-0.21875-2.1914-0.21875-3.2891-0.4375-8.7695-3.2891-17.102-8.1133-24.555-0.87891-1.0977-1.7539-2.1914-2.6328-3.0703-1.0977-1.0977-2.6328-2.1914-3.9453-2.8516-0.21875-0.21875-0.4375-0.21875-0.65625-0.4375-3.0703-1.5352-6.5781-1.5352-9.6484 0-8.9883 3.9453-15.348 18.637-15.785 36.836v1.5352 1.7539c0 1.0977 0 2.1914 0.21875 3.2891 0.87891 14.691 5.918 26.531 12.715 31.793 2.1914 1.7539 4.8242 2.6328 7.6719 2.6328 2.8516 0 5.6992-1.0977 8.1133-3.0703 1.3164-1.0977 2.6328-2.4102 3.7266-3.7266 5.4805-7.0156 8.9883-18.855 8.9883-32.668l0.003906-0.88281c-0.4375-1.0977-0.4375-2.1953-0.4375-3.2891zm-20.609 37.051c-0.65625 0-1.5352-0.21875-2.1914-0.4375-1.3164-0.65625-2.6328-1.5352-3.7266-2.8516-1.5352-1.9727-2.8516-3.9453-3.9453-6.3594-2.6328-5.918-3.9453-12.496-4.1641-18.855v-3.2891-0.87891-2.4102c0-7.4531 1.7539-14.91 4.8242-21.926 0.87891-2.1914 2.4102-4.1641 3.9453-5.918 1.3164-1.5352 3.2891-2.6328 5.2617-2.8516 1.5352 0 2.8516 0.65625 3.9453 1.5352 2.8516 2.4102 5.043 5.6992 6.1406 9.207 0.21875 0.65625 0.4375 1.5352 0.87891 2.1914v0.4375c0.21875 0.65625 0.4375 1.3164 0.65625 1.9727 0.87891 3.5078 1.5352 7.2344 1.9727 10.961 0 1.0977 0.21875 2.1914 0.21875 3.2891v3.0703 0.21875c0.21484 19.523-7.2383 32.895-13.816 32.895z"/>
  <path d="m379.07 461.29 1.0977-3.9453c1.9727-1.7539 3.2891-4.1641 3.7266-7.0156 0-1.3164-0.21875-2.6328-0.87891-3.9453l0.65625-2.8516c5.0469 6.7969 1.5391 12.496-4.6016 17.758z"/>
  <path d="m391.57 413.71-0.21875 0.65625-1.0977 3.7266-5.4805 5.918c-1.3164 1.5352-2.4102 3.2891-2.8516 5.2617-1.0977 4.1641-0.21875 8.5508 2.4102 11.621l-0.65625 2.6328-0.87891-0.87891c-1.5352-1.7539-2.6328-3.9453-3.2891-6.3594-0.21875-1.0977-0.4375-2.1914-0.4375-3.2891s0.21875-2.1914 0.4375-3.5078c0.65625-2.6328 1.9727-5.043 3.7266-7.0156l7.8945-8.7695z"/>
  <path d="m393.1 415.25-1.0977 1.3164-1.7539 1.7539-5.4805 5.9219c-1.3164 1.5352-2.4102 3.2891-2.8516 5.2617-1.0977 4.1641-0.21875 8.5508 2.4102 11.84l0.21875 0.21875c2.4102 2.4102 3.7266 5.918 3.7266 9.4297-0.21875 3.9453-2.6328 7.8945-7.8945 12.277-0.4375 0.4375-0.87891 0.4375-1.5352 0.4375-0.4375 0-1.0977-0.21875-1.3164-0.4375l-0.21875-0.21875c-0.65625-0.87891-0.65625-1.9727 0-2.8516l0.21875-0.21875c0.87891-0.87891 1.7539-1.5352 2.6328-2.4102 1.9727-1.7539 3.2891-4.1641 3.7266-7.0156 0-1.3164-0.21875-2.6328-0.87891-3.9453-0.4375-0.87891-1.0977-1.5352-1.7539-2.4102-1.7539-2.1914-3.0703-4.8242-3.7266-7.4531-0.21875-1.0977-0.4375-2.1914-0.4375-3.2891s0-2.1914 0.21875-3.2891c0.65625-3.2891 2.1914-6.3594 4.3867-8.7695l8.332-8.9883 0.4375-0.4375c0.87891-0.4375 1.9727-0.4375 2.6328 0.21875 0.88281 0.86719 0.88281 2.1836 0.003906 3.0586z"/>
  <path d="m434.54 416.12c0 1.3164-0.87891 2.1914-2.1914 2.1914h-21.27c-1.3164 0-2.1914-0.87891-2.1914-2.1914 0-1.3164 0.87891-2.1914 2.1914-2.1914h21.266c1.3164 0 2.1953 1.0938 2.1953 2.1914z"/>
  <path d="m449.23 415.25c7.2344-1.9727 21.047 3.9453 34.203 1.7539z"/>
  <path d="m485.41 416.78c0.21875 1.0977-0.65625 2.4102-1.7539 2.6328-2.1914 0.4375-4.3867 0.4375-6.5781 0.4375-4.8242-0.21875-9.8672-0.65625-14.691-1.5352-5.2617-0.87891-9.6484-1.5352-12.715-0.87891-1.0977 0.4375-2.4102-0.21875-2.6328-1.5352-0.4375-1.0977 0.21875-2.4102 1.5352-2.6328h0.21875c3.7266-1.0977 8.7695-0.21875 14.469 0.65625 6.5781 1.3164 13.156 1.7539 19.953 1.0977 0.88281-0.21484 1.9766 0.44141 2.1953 1.7578z"/>
  <path d="m437.83 325.79h-6.5781c0-6.3594-12.277-12.938-32.887-17.32-20.172-4.3867-48.234-6.7969-76.957-6.7969-59.418 0-105.68 10.305-105.68 23.242h-6.5781c0-21.926 60.512-29.816 112.26-29.816 29.816 0 57.664 2.4102 78.492 7.0156 24.996 5.2578 37.93 13.371 37.93 23.676z"/>
  <path d="m237.66 322.07c-1.3164 0.21875-2.4102-0.65625-2.4102-1.7539-0.21875-1.3164 0.65625-2.4102 1.7539-2.6328l1.5352-0.4375c8.5508-2.6328 28.504-9.207 60.953-8.9883 1.3164 0 2.1914 0.87891 2.1914 2.1914 0 1.3164-0.87891 2.1914-2.1914 2.1914-32.012-0.21875-51.305 6.1406-59.637 8.9883l-1.7539 0.4375c-0.003906 0.003906-0.22266 0.003906-0.44141 0.003906z"/>
  <path d="m310.66 310.66c0 3.2148-4.8242 3.2148-4.8242 0 0-3.2148 4.8242-3.2148 4.8242 0"/>
 </g>
</svg>
